<svg width="720" height="480" viewBox="0 0 720 480" fill="none" xmlns="http://www.w3.org/2000/svg">
<rect width="720" height="480" fill="currentColor"/>
<path d="M155.904 233.264H155.2V234.224H156.672V234.544H156.096L155.904 235.824H156.608C156.565 235.909 156.544 236.016 156.544 236.144H155.648C155.605 236.357 155.563 236.571 155.52 236.784C155.477 236.997 155.413 237.211 155.328 237.424C155.328 237.595 155.285 237.808 155.2 238.064H154.56L154.176 239.024H154.112C154.069 239.237 153.984 239.451 153.856 239.664C153.728 239.877 153.621 240.091 153.536 240.304H153.664L153.472 240.624H154.048C153.92 240.837 153.792 241.051 153.664 241.264C153.536 241.477 153.387 241.691 153.216 241.904H153.664C153.493 242.117 153.301 242.331 153.088 242.544C152.917 242.757 152.725 242.971 152.512 243.184H152.384C152.128 243.397 151.872 243.611 151.616 243.824C151.403 244.037 151.147 244.251 150.848 244.464H150.464C150.123 244.677 149.76 244.891 149.376 245.104C149.035 245.317 148.672 245.531 148.288 245.744H148.48C148.395 245.787 148.288 245.829 148.16 245.872C148.032 245.915 147.925 245.979 147.84 246.064H147.776C146.965 246.448 146.069 246.768 145.088 247.024C144.619 247.152 144.128 247.28 143.616 247.408C143.104 247.493 142.592 247.579 142.08 247.664H142.016C140.309 247.92 138.496 248.048 136.576 248.048H132.096V248.624H132.544V249.904H133.312V250.224H131.776V250.864H132.352V251.824H130.752V252.144H132.736V253.424H132.16V255.024H132.416V255.984H131.648V257.264H131.328V257.904H133.44V258.864H131.648V260.144H132.864V260.272C132.864 260.485 132.843 260.656 132.8 260.784H132.416C132.416 260.827 132.373 260.933 132.288 261.104H132.48C132.437 261.189 132.352 261.296 132.224 261.424H132.288C132.117 261.595 131.989 261.701 131.904 261.744H131.968C131.755 261.915 131.456 262 131.072 262H117.888C117.504 262 117.205 261.915 116.992 261.744H116.864C116.779 261.701 116.651 261.595 116.48 261.424C116.437 261.339 116.395 261.275 116.352 261.232C116.309 261.189 116.288 261.147 116.288 261.104H116.096C116.011 260.933 115.968 260.827 115.968 260.784H116.288C116.245 260.656 116.224 260.485 116.224 260.272V260.144H115.008V258.864H116.8V257.904H114.688V257.264H115.008V255.984H115.776V255.024H115.52V253.424H116.096V252.144H114.112V251.824H115.712V250.864H115.136V250.224H116.672V249.904H115.904V248.624H115.456V247.664H115.52V245.744H115.392V244.464H115.776V243.184H115.968V241.904H115.52V240.624H114.944V240.304H114.816V239.024H114.88V238.064H115.52V236.144H115.328V235.824H115.136V234.544H115.84V234.224H115.584V233.264H115.84V232.624H115.776V231.984H113.984V230.704H106.88V229.744H110.144V228.464H115.968V227.824H113.536V226.544H112.064V225.584H113.024V225.264H111.68V223.984H116.608V223.664H115.968V222.704H114.496V221.744H112.448V220.464H117.056V219.504H114.816V219.184H114.368V218.864H115.52C115.52 218.693 115.563 218.48 115.648 218.224H114.944C114.987 218.096 115.051 217.989 115.136 217.904C115.221 217.776 115.307 217.669 115.392 217.584H119.296C119.637 217.328 120 217.2 120.384 217.2H139.776C141.653 217.2 143.381 217.328 144.96 217.584H141.12C141.632 217.669 142.123 217.776 142.592 217.904C143.104 217.989 143.573 218.096 144 218.224H144.768C145.109 218.309 145.429 218.416 145.728 218.544C146.069 218.629 146.389 218.736 146.688 218.864H145.536C145.664 218.907 145.792 218.949 145.92 218.992C146.048 219.035 146.176 219.099 146.304 219.184H146.688L147.392 219.504H149.696L151.36 220.464H146.688C147.029 220.635 147.328 220.848 147.584 221.104C147.84 221.317 148.096 221.531 148.352 221.744H150.4L151.36 222.704H152.832C152.96 222.875 153.088 223.045 153.216 223.216C153.387 223.344 153.515 223.493 153.6 223.664H154.24C154.368 223.792 154.453 223.899 154.496 223.984H149.568C149.696 224.155 149.824 224.368 149.952 224.624C150.08 224.837 150.208 225.051 150.336 225.264H151.68L151.808 225.584H150.912L151.296 226.544H152.832L153.216 227.824H155.648L155.84 228.464H150.016C150.101 228.635 150.144 228.848 150.144 229.104C150.187 229.317 150.229 229.531 150.272 229.744H158.464C158.507 229.915 158.528 230.085 158.528 230.256C158.528 230.384 158.549 230.533 158.592 230.704H158.272C158.315 230.917 158.336 231.131 158.336 231.344C158.379 231.557 158.4 231.771 158.4 231.984H155.904V233.264ZM139.84 234.224H138.368L138.56 233.264H139.264V232.624C139.264 232.539 139.264 232.432 139.264 232.304C139.264 232.176 139.243 232.069 139.2 231.984H141.696C141.653 231.771 141.611 231.557 141.568 231.344C141.525 231.088 141.461 230.875 141.376 230.704H141.632C141.547 230.363 141.333 230.043 140.992 229.744H132.8C132.288 229.317 131.669 229.104 130.944 229.104H126.464V229.744H123.2V230.704H130.304V231.984H132.096V232.624H132.16V233.264H131.904V234.224H132.16V234.544H131.456V235.824H131.648V236.144H131.84V236.208H136.32C136.576 236.208 136.768 236.187 136.896 236.144H137.792C137.963 236.101 138.112 236.059 138.24 236.016C138.368 235.931 138.496 235.867 138.624 235.824H137.984C138.496 235.525 138.88 235.099 139.136 234.544H139.712C139.797 234.373 139.84 234.267 139.84 234.224ZM159.365 218.864C159.408 218.736 159.429 218.629 159.429 218.544C159.472 218.416 159.514 218.309 159.557 218.224H152.517C152.602 218.096 152.688 217.989 152.773 217.904C152.858 217.776 152.944 217.669 153.029 217.584H160.453C160.794 217.328 161.157 217.2 161.541 217.2H174.341C174.81 217.2 175.173 217.328 175.429 217.584H168.005C168.09 217.669 168.176 217.776 168.261 217.904C168.389 217.989 168.474 218.096 168.517 218.224H175.493C175.578 218.48 175.621 218.693 175.621 218.864H179.205C179.248 218.864 179.269 218.885 179.269 218.928V219.504H170.629V220.784H174.213V221.744H173.829V223.024H171.525V224.304H176.709V224.624H177.093V225.904H177.349V227.184H176.901V228.464H176.581V230.064H177.669V231.344H176.453V232.624H176.709V232.944H181.253V234.224H183.621V234.864H173.765V235.504H177.029V236.784H174.341V238.064H176.645V238.704H177.093V239.664H185.669V240.304H191.621V241.584H175.365V240.304H169.413V239.664H160.837V238.704H160.389V238.064H158.085V236.784H160.773V235.504H157.509V234.864H167.365V234.224H164.997V232.944H160.453V232.624H160.197V231.344H161.413V230.064H160.325V228.464H160.645V227.184H161.093V225.904H160.837V224.624H160.453V224.304H155.269V223.024H157.573V221.744H157.957V220.784H154.373V219.504H163.013V218.864H159.365ZM201.925 253.424H184.453V253.744H185.733V254.704H194.821V255.024H192.005V256.304H196.485V257.264H197.125V257.584H196.677V257.904H196.485V259.184H196.613V260.144H196.357V260.464H196.037C195.994 260.549 195.973 260.656 195.973 260.784H196.677C196.549 261.211 196.314 261.531 195.973 261.744H195.269C195.056 261.915 194.757 262 194.373 262H162.117C161.733 262 161.434 261.915 161.221 261.744H161.861C161.477 261.531 161.221 261.211 161.093 260.784H160.389C160.389 260.699 160.368 260.635 160.325 260.592C160.325 260.549 160.325 260.507 160.325 260.464H160.645V260.144H160.901V259.184H160.773V257.904H160.965V257.584H161.413V257.264H160.773V256.304H156.293V255.024H159.109V254.704H150.021V253.744H148.741V253.424H166.213V252.464H159.109V251.504H166.021V251.184H150.917V250.224H153.093V249.904H161.413V249.584H158.469V248.624H163.461V247.344H158.405V246.704H162.565V246.384H160.645V245.424H162.501V244.784H160.133V244.144H165.701V243.184H167.301V242.544H158.533V241.584H174.789V242.544H183.557V243.184H181.957V244.144H176.389V244.784H178.757V245.424H176.901V246.384H178.821V246.704H174.661V247.344H179.717V248.624H174.725V248.88H192.453C193.05 248.88 193.52 249.115 193.861 249.584H196.805L196.997 249.904H188.677L188.805 250.224H186.565C186.608 250.309 186.629 250.437 186.629 250.608V251.184H201.733V251.504H194.821V252.464H201.925V253.424ZM246.276 258.544L246.724 259.824H245.636L245.764 260.144C245.764 260.187 245.764 260.251 245.764 260.336C245.806 260.379 245.828 260.421 245.828 260.464H245.444V260.592C245.444 261.104 245.252 261.488 244.868 261.744H244.932C244.718 261.915 244.441 262 244.1 262H232.26C231.961 262 231.705 261.979 231.492 261.936C231.321 261.851 231.129 261.787 230.916 261.744C230.574 261.573 230.318 261.381 230.148 261.168C229.977 260.912 229.849 260.677 229.764 260.464H230.083V260.4L229.956 260.144L229.828 259.824H230.916L230.468 258.544H229.252L229.06 257.904H231.684L231.236 256.624H230.468L230.276 256.176H216.516L216.388 256.624H215.62L215.172 257.904H214.468L214.212 258.544H213.828L213.38 259.824H213.444L213.316 260.144L213.252 260.4L213.188 260.464H212.868C212.782 260.677 212.654 260.912 212.484 261.168C212.313 261.381 212.057 261.573 211.716 261.744H213.635C213.465 261.787 213.273 261.851 213.06 261.936C212.846 261.979 212.59 262 212.292 262H200.452C200.11 262 199.854 261.915 199.684 261.744H197.764C197.337 261.445 197.123 261.061 197.123 260.592V260.464H197.508C197.508 260.336 197.529 260.229 197.572 260.144L197.636 259.824H197.572L198.02 258.544H198.404L198.66 257.904H199.364L199.812 256.624H200.516L200.964 255.344H198.468L198.724 254.704H198.532L198.852 253.744H199.492L199.62 253.424H198.212L198.66 252.144H200.836L201.028 251.504H199.044L199.172 251.184H199.492L199.94 249.904H199.748L200.068 248.944H200.324L200.772 247.664H201.604L201.924 246.704L202.052 246.384H205.252L205.38 246.064H205.188L205.508 245.104H201.924L202.372 243.824H203.524L203.652 243.504H202.948L203.076 243.184H205.124L205.572 241.904H203.076L203.332 241.264H204.292L204.74 239.984H204.164L204.484 239.024H205.188L205.635 237.744H205.444L205.572 237.424H204.1L204.356 236.784H205.764L206.084 235.824H205.444L205.508 235.504H206.66L207.108 234.224H205.7L206.02 233.264H205.316L205.508 232.624H201.092L201.284 231.984H200.452L200.9 230.704H200.068L200.452 229.744H202.948L203.396 228.464H209.796L210.116 227.504H207.044L207.3 226.864H209.668L210.116 225.584H208.004L208.324 224.624H209.668L210.116 223.344H209.924L210.372 222.064H208.58L208.644 221.744H214.788L215.236 220.464H215.044L215.172 220.144H212.932L213.188 219.312L213.38 218.864H214.02L214.404 218.224H214.212C214.425 217.925 214.724 217.691 215.108 217.52C215.492 217.307 215.961 217.2 216.516 217.2H230.404C230.958 217.2 231.428 217.307 231.812 217.52C232.196 217.691 232.494 217.925 232.708 218.224H232.964L233.347 218.864H232.708C232.793 219.035 232.836 219.184 232.836 219.312L233.156 220.144H235.396L235.46 220.464H235.652L236.1 221.744H230.02L230.148 222.064H231.94L232.388 223.344H232.58L233.028 224.624H231.684L232.004 225.584H234.116L234.564 226.864H232.196L232.451 227.504H235.524L235.844 228.464H229.444L229.892 229.744H227.396L227.716 230.704H228.484L228.932 231.984H226.436L226.692 232.624H236.868L237.06 233.264H236.548L236.868 234.224H235.588L236.036 235.504H234.5L234.564 235.824H236.868L237.188 236.784H237.252L237.508 237.424H235.396L235.524 237.744H237.572L238.02 239.024H238.724L239.044 239.984H238.852L239.3 241.264H240.324L240.58 241.904H238.724L239.172 243.184H240.452L240.516 243.504H240.196L240.324 243.824H239.172L239.556 245.104H243.204L243.524 246.064H243.716L243.844 246.384H240.58L240.708 246.704H240.772L241.092 247.664H240.26L240.708 248.944H240.388L240.772 249.904H240.964L241.412 251.184H241.092L241.22 251.504H243.204L243.46 252.144H241.22L241.668 253.424H243.076L243.204 253.744H242.564L242.948 254.704H243.076L243.332 255.344H245.828L246.276 256.624H247.044L247.492 257.904H244.868L245.06 258.544H246.276ZM219.524 233.264H220.292L219.972 234.224H222.596L222.276 233.264H222.788L222.596 232.624H219.716L219.524 233.264ZM221.636 235.504L221.316 234.416L220.996 235.504H221.636ZM217.796 243.184L217.668 243.504H218.372L218.308 243.696H225.54L225.476 243.504H225.796L225.732 243.184H224.452L224.068 241.904H225.924L225.732 241.264H224.644L224.26 239.984H224.452L224.196 239.024H223.492L223.108 237.744H221.06L220.932 237.424H223.044L222.852 236.784H222.788L222.468 235.824H220.42L220.164 236.784H218.756L218.564 237.424H219.972L219.908 237.744H220.1L219.716 239.024H219.012L218.692 239.984H219.268L218.884 241.264H217.924L217.732 241.904H220.228L219.844 243.184H217.796ZM298.518 231.344V231.664H296.982C297.024 231.877 297.046 232.091 297.046 232.304C297.046 232.517 297.046 232.731 297.046 232.944H285.846C285.846 233.499 285.568 233.925 285.014 234.224C284.758 234.309 284.566 234.352 284.438 234.352H271.382C271.211 234.352 271.04 234.352 270.87 234.352C270.699 234.309 270.528 234.267 270.358 234.224H259.926V234.544H265.558C265.515 234.757 265.494 234.971 265.494 235.184C265.494 235.397 265.494 235.611 265.494 235.824H263.253C263.211 235.909 263.19 236.016 263.19 236.144C263.19 236.272 263.19 236.379 263.19 236.464H263.382V237.104H262.422V238.384H265.494V238.704H255.126V239.344H258.39V240.624H264.982V240.944H262.294V241.264H260.566V242.544H265.494C265.536 242.715 265.558 242.885 265.558 243.056C265.558 243.184 265.558 243.333 265.558 243.504H267.35V243.824H259.094V244.464H257.238V244.784H265.558V244.848H278.358C279.168 244.848 279.638 245.253 279.766 246.064H289.238V247.024H288.79L288.662 248.304H287.958L287.894 248.944H289.558C289.558 249.072 289.536 249.179 289.494 249.264H289.11C289.067 249.349 289.046 249.456 289.046 249.584H291.158L290.966 250.544H288.982C288.982 250.587 288.96 250.629 288.918 250.672C288.918 250.715 288.918 250.779 288.918 250.864H288.406C288.363 251.035 288.299 251.205 288.214 251.376C288.171 251.504 288.128 251.653 288.086 251.824H288.854C288.854 251.867 288.811 251.973 288.726 252.144H287.446C287.36 252.357 287.254 252.571 287.126 252.784C287.04 252.997 286.934 253.211 286.806 253.424H288.086L287.51 254.384H288.086L287.446 255.344H287.062C286.891 255.557 286.699 255.771 286.486 255.984C286.315 256.197 286.123 256.411 285.91 256.624H285.398C285.355 256.667 285.312 256.709 285.27 256.752C285.227 256.795 285.163 256.859 285.078 256.944H282.326L282.006 257.264H294.87C294.614 257.477 294.358 257.691 294.102 257.904C293.846 258.117 293.568 258.331 293.27 258.544H292.566C292.139 258.843 291.627 259.163 291.03 259.504H277.526C277.099 259.76 276.651 259.995 276.182 260.208C275.712 260.379 275.243 260.571 274.774 260.784H285.334C285.206 260.827 285.056 260.869 284.886 260.912C284.758 260.955 284.608 261.019 284.438 261.104H281.878C281.707 261.147 281.536 261.189 281.366 261.232C281.195 261.275 281.024 261.339 280.854 261.424H276.246C274.71 261.851 273.131 262.171 271.51 262.384H272.534C271.851 262.469 271.147 262.533 270.422 262.576C269.696 262.619 268.971 262.64 268.246 262.64C267.435 262.64 266.646 262.619 265.878 262.576C265.152 262.533 264.427 262.469 263.702 262.384H262.678C260.971 262.171 259.392 261.851 257.942 261.424H262.55C262.379 261.339 262.208 261.275 262.038 261.232C261.91 261.189 261.76 261.147 261.59 261.104H264.214L263.318 260.784H252.758C252.331 260.571 251.883 260.379 251.414 260.208C250.987 259.995 250.56 259.76 250.134 259.504H263.702C263.446 259.333 263.19 259.184 262.934 259.056C262.678 258.885 262.443 258.715 262.23 258.544H262.934C262.422 258.16 261.931 257.733 261.462 257.264H248.534C248.491 257.179 248.448 257.115 248.406 257.072C248.363 257.029 248.299 256.987 248.214 256.944H251.03C250.987 256.859 250.923 256.795 250.838 256.752C250.795 256.709 250.752 256.667 250.71 256.624H251.222C250.838 256.197 250.475 255.771 250.134 255.344H250.518L249.942 254.384H249.366L248.79 253.424H247.51L246.934 252.144H248.278L248.15 251.824H247.318C247.275 251.653 247.232 251.504 247.19 251.376C247.147 251.205 247.083 251.035 246.998 250.864H247.51L247.382 250.544H249.366C249.323 250.373 249.28 250.224 249.238 250.096C249.195 249.925 249.152 249.755 249.11 249.584H248.086C248.043 249.499 248.022 249.392 248.022 249.264H246.934C246.891 249.179 246.87 249.072 246.87 248.944H246.934C246.934 248.773 246.891 248.56 246.806 248.304H243.157L242.965 247.024H247.894C247.851 246.853 247.83 246.704 247.83 246.576C247.83 246.405 247.808 246.235 247.766 246.064H248.982C248.982 245.936 248.982 245.808 248.982 245.68C248.982 245.552 248.96 245.424 248.918 245.296V244.784H240.597V244.464H242.453V243.824H250.71V243.504H248.918C248.918 243.333 248.896 243.184 248.854 243.056C248.854 242.885 248.854 242.715 248.854 242.544H243.925V241.264H245.654V240.944H248.342V240.624H241.749V239.344H238.485V238.704H248.854V238.384H245.782V237.104H246.742V236.464H246.549V235.824H248.854V234.544H243.285V234.224H255.574V233.904C255.616 233.733 255.638 233.584 255.638 233.456C255.638 233.285 255.638 233.115 255.638 232.944H252.246C252.246 232.731 252.246 232.517 252.246 232.304C252.288 232.091 252.331 231.877 252.374 231.664H254.422C254.464 231.579 254.486 231.472 254.486 231.344H241.237C241.28 231.259 241.301 231.152 241.301 231.024C241.301 230.896 241.323 230.789 241.365 230.704H253.014L253.334 229.424H250.71L250.902 228.784H246.614L246.742 228.464H248.15C248.192 228.379 248.235 228.272 248.278 228.144C248.32 228.016 248.363 227.909 248.406 227.824H247.702L247.958 227.184H248.278C248.363 227.013 248.448 226.864 248.534 226.736C248.619 226.565 248.683 226.395 248.726 226.224H248.79L249.366 225.264H249.174C249.259 225.093 249.344 224.944 249.43 224.816C249.558 224.645 249.686 224.475 249.814 224.304H249.302C249.472 224.091 249.643 223.877 249.814 223.664C249.984 223.408 250.155 223.195 250.326 223.024H249.75C249.792 222.939 249.835 222.875 249.878 222.832C249.92 222.789 249.963 222.747 250.006 222.704H249.366L249.686 222.384H249.558C249.643 222.299 249.707 222.235 249.75 222.192C249.792 222.149 249.835 222.107 249.878 222.064H248.726C248.811 221.979 248.918 221.872 249.046 221.744C249.174 221.616 249.302 221.509 249.43 221.424H250.966C251.179 221.253 251.392 221.104 251.606 220.976C251.819 220.805 252.032 220.635 252.246 220.464H251.542L252.054 220.144H250.966C251.051 220.059 251.136 219.995 251.222 219.952C251.307 219.909 251.392 219.867 251.478 219.824H254.806C255.104 219.653 255.403 219.504 255.702 219.376C256 219.205 256.299 219.035 256.598 218.864H256.406C256.662 218.736 256.918 218.629 257.174 218.544C257.43 218.416 257.686 218.309 257.942 218.224H259.158C259.286 218.139 259.414 218.075 259.542 218.032C259.712 217.989 259.883 217.947 260.054 217.904H258.134C259.414 217.435 260.779 217.115 262.23 216.944H263.958C265.622 216.688 267.371 216.56 269.206 216.56C270.998 216.56 272.726 216.688 274.39 216.944H272.726C274.134 217.115 275.542 217.435 276.95 217.904H278.87C279.04 217.947 279.19 217.989 279.318 218.032C279.488 218.075 279.659 218.139 279.83 218.224H278.614C279.254 218.437 279.787 218.651 280.214 218.864H280.406C280.747 219.035 281.067 219.205 281.366 219.376C281.664 219.504 281.963 219.653 282.262 219.824H278.998C279.083 219.867 279.168 219.909 279.254 219.952C279.339 219.995 279.424 220.059 279.51 220.144H280.597C280.683 220.187 280.768 220.229 280.854 220.272C280.939 220.315 281.003 220.379 281.046 220.464H281.75L283.03 221.424H281.43L282.198 222.064H283.35L283.734 222.384H283.798L284.118 222.704H284.758L285.078 223.024H285.654C285.824 223.195 285.995 223.408 286.166 223.664C286.336 223.877 286.507 224.091 286.678 224.304H287.126C287.254 224.475 287.36 224.645 287.446 224.816C287.574 224.944 287.68 225.093 287.766 225.264H287.958C288.043 225.435 288.128 225.605 288.214 225.776C288.299 225.904 288.384 226.053 288.47 226.224H288.342C288.427 226.395 288.512 226.565 288.598 226.736C288.683 226.864 288.747 227.013 288.79 227.184H288.47L288.662 227.824H289.366L289.558 228.464H288.15C288.15 228.507 288.15 228.549 288.15 228.592C288.192 228.635 288.214 228.699 288.214 228.784H292.502C292.502 228.955 292.544 229.168 292.63 229.424H286.806L286.998 230.704H290.71L290.774 231.344H298.518ZM269.142 229.424H273.686C273.003 229.168 272.235 229.04 271.382 229.04C270.528 229.04 269.782 229.168 269.142 229.424ZM280.214 232.496C280.171 232.325 280.128 232.176 280.086 232.048C280.043 231.92 279.979 231.792 279.894 231.664H281.43L281.238 231.344H273.558C273.515 231.216 273.451 231.109 273.366 231.024C273.28 230.896 273.195 230.789 273.11 230.704H258.582C258.539 230.789 258.475 230.896 258.39 231.024C258.347 231.109 258.283 231.216 258.198 231.344H271.446L271.318 231.664H269.27C269.184 231.835 269.12 232.048 269.078 232.304C269.035 232.517 268.992 232.731 268.95 232.944H280.406L280.214 232.496ZM272.662 246.064H264.47L264.662 247.024H259.734C259.819 247.28 259.904 247.515 259.99 247.728C260.075 247.899 260.182 248.091 260.31 248.304H263.958C264.043 248.432 264.128 248.56 264.214 248.688C264.299 248.773 264.384 248.859 264.47 248.944H264.342L264.662 249.264H265.75C265.835 249.307 265.92 249.371 266.006 249.456C266.091 249.499 266.176 249.541 266.262 249.584H267.286C268.011 249.968 268.886 250.16 269.91 250.16C270.934 250.16 271.787 249.968 272.47 249.584H270.358L270.87 249.264H271.254L271.638 248.944H269.974C270.059 248.859 270.144 248.773 270.23 248.688C270.358 248.56 270.443 248.432 270.486 248.304H271.19C271.446 247.92 271.659 247.493 271.83 247.024H272.278L272.406 246.704C272.491 246.448 272.576 246.235 272.662 246.064ZM335.343 250.864H340.399V251.824H330.671V253.104H336.943V254.384H331.439V255.664H332.143V256.624H331.695V257.264H330.351V257.904H330.287V258.544H331.631V259.824H333.487V260.272C333.487 260.357 333.466 260.421 333.423 260.464H322.031C321.988 260.549 321.967 260.656 321.967 260.784H326.383C326.255 261.211 326.02 261.531 325.679 261.744H324.463C324.25 261.915 323.951 262 323.567 262H290.223C289.882 262 289.562 261.915 289.263 261.744H290.479C290.18 261.531 289.946 261.211 289.775 260.784H285.295C285.252 260.699 285.231 260.592 285.231 260.464H296.687V259.824H294.831V258.544H293.487V257.904H293.551V257.264H294.895V256.624H295.343V255.664H294.639V254.384H300.143V253.104H293.871V251.824H303.599V250.864H298.543V250.224H300.015V249.584H300.655V248.944H293.551V248.304H291.887V247.344H297.839V247.024H293.103V246.384H294.511V245.744H295.535V244.784H295.407V243.504H294.767V242.224H293.807V241.584H294.575V240.304H293.871V239.664H294.895V238.704H295.151V237.744H296.303V237.424H295.215V236.144H294.255V235.184H294.511V234.224H294.639V232.944H295.599V231.664H294.191V230.384H294.383V229.104H296.175V228.144H295.215V227.184H294.703V226.864H297.391V225.904H302.127V225.264H300.207V224.624H293.999V224.304H294.703V223.344H294.767V222.384H294.959V221.104H294.895V219.504H294.767V218.928C294.767 218.757 294.788 218.629 294.831 218.544H294.191C294.362 217.648 294.916 217.2 295.855 217.2H328.687C329.668 217.2 330.223 217.648 330.351 218.544H330.991C331.034 218.629 331.055 218.757 331.055 218.928V219.504H331.183V221.104H331.247V222.384H331.055V223.344H330.991V224.304H330.287V224.624H336.495V225.264H338.415V225.904H333.679V226.864H330.991V227.184H331.503V228.144H332.463C332.378 228.571 332.228 228.891 332.015 229.104H330.223C329.924 229.488 329.498 229.68 328.943 229.68H309.743V230.384H309.551V231.664H310.959V232.944H309.999V233.712H327.791C328.26 233.712 328.666 233.883 329.007 234.224H328.879C329.092 234.437 329.242 234.757 329.327 235.184H329.135V236.144H330.095V237.424H331.183V237.744H330.031V238.704H329.775V239.664H328.751V240.304H329.455V241.584H328.687V242.224H329.647V243.504H330.287V243.76C330.287 244.229 330.18 244.571 329.967 244.784H330.095C329.754 245.253 329.284 245.488 328.687 245.488H310.895V245.744H309.871V246.384H308.463V247.024H313.199V247.344H307.247V248.304H308.911V248.944H316.015V249.52H335.727C335.94 249.52 336.111 249.541 336.239 249.584H335.535C335.962 249.712 336.282 249.925 336.495 250.224H335.023C335.194 250.48 335.3 250.693 335.343 250.864ZM382.767 247.024V247.344H387.759V247.984H387.503V248.944H374.255V249.264H376.559V250.224H383.599V250.864H379.951V252.144H379.759V252.464H375.535V253.424H381.807V253.744H382.063V254.704H382.703V255.984H370.351V256.944H383.407V257.584H379.055V258.544H378.479V259.184H379.951V259.824H378.991V260.464H381.231L381.039 261.104H384.047C383.961 261.232 383.855 261.36 383.727 261.488C383.641 261.573 383.535 261.659 383.407 261.744H384.879C384.665 261.915 384.367 262 383.983 262H371.439C371.055 262 370.756 261.915 370.543 261.744H369.071C368.772 261.616 368.559 261.403 368.431 261.104H365.423L365.231 260.464H362.991V259.824H363.951V259.184H362.479V258.544H363.055V257.584H367.407V256.944H355.823V257.584H350.51V258.544H354.159V259.184H353.263V259.824H356.591V260.464H353.007L352.815 261.104H354.223C354.052 261.403 353.86 261.616 353.647 261.744H352.111C351.897 261.915 351.599 262 351.215 262H338.671C338.244 262 337.924 261.915 337.711 261.744H339.247C339.033 261.616 338.841 261.403 338.671 261.104H337.199C337.071 260.891 337.007 260.677 337.007 260.464H340.591V259.824H337.263V259.184H338.159V258.544H334.511V257.584H339.823V256.944H342.895V255.984H333.038V254.704H336.687V253.744H339.247V253.424H337.455V252.464H334.447V252.144H335.087V250.864H337.135V250.224H338.095V249.264H333.486V248.944H345.327V247.984H330.862V247.344H344.495V247.024H337.839V246.064H341.679V245.744H342.447V245.424H342.127V244.144H335.791V243.184H337.903V242.864H337.327V241.904H337.583V241.584H337.647V240.944H337.711V240.624H336.879V240.304H334.383V239.344H335.215V238.384H333.934V237.424H337.135V236.144H336.431V235.504H331.758V235.184H339.247V234.544H341.039V234.224H323.758V233.904H333.934V233.584H337.583V232.624H331.054V231.344H329.262V230.384H336.943V229.104H337.583V228.144H341.679V227.824H338.159V226.544H341.039V225.904H337.583V225.584H336.367V224.944H334.511V224.304H332.27V223.024H336.303V222.064H338.735V221.104H337.583V220.464H335.983V220.144H336.879V219.504H336.687V218.928C336.687 218.629 336.751 218.395 336.879 218.224H340.975C341.017 218.096 341.081 217.989 341.167 217.904C341.252 217.776 341.337 217.669 341.423 217.584H351.279C351.535 217.328 351.897 217.2 352.367 217.2H376.943C377.369 217.2 377.732 217.328 378.031 217.584H387.887C387.972 217.669 388.057 217.776 388.143 217.904C388.271 217.989 388.356 218.096 388.399 218.224H380.143C380.228 218.48 380.271 218.715 380.271 218.928V219.504H380.591V220.144H381.487V220.464H379.759V221.104H378.991V222.064H381.487V223.024H375.471V224.304H382.383V224.944H377.391V225.584H379.439V225.904H378.415V226.544H383.215V227.824H376.175V228.144H381.615V229.104H380.655V230.384H375.535V231.344H373.423V232.624H379.951V233.584H376.303V233.904H366.127V234.224H383.407V234.544H381.615V235.184H374.127V235.504H378.799V236.144H379.503V237.424H376.303V238.384H377.583V239.344H376.751V240.304H379.247V240.624H380.079V240.944H380.015V241.584H379.951V241.904H379.695V242.864H380.271V243.184H378.159V244.144H384.495V245.424H384.815V245.744H384.047V246.064H380.207V247.024H382.767ZM345.263 230.384V231.344H347.055V232.368H357.423V231.344H359.535V230.384H364.655V229.104H365.615V228.144H360.175V227.824H367.215V226.544H362.415V225.904H363.439V225.584H361.391V224.944H366.382V224.304H359.471V223.024H365.487V222.064H362.991V221.104H363.759V220.464H365.487V220.144H364.591V219.504H364.271V218.928C364.271 218.715 364.313 218.48 364.399 218.224H372.655C372.74 218.096 372.825 217.989 372.911 217.904C372.996 217.776 373.081 217.669 373.167 217.584H356.143C356.356 217.755 356.527 217.968 356.655 218.224H352.559C352.644 218.352 352.687 218.587 352.687 218.928V219.504H352.878V220.144H351.983V220.464H353.583V221.104H354.735V222.064H352.303V223.024H348.271V224.304H350.51V224.944H352.367V225.584H353.583V225.904H357.039V226.544H354.159V227.824H357.679V228.144H353.583V229.104H352.943V230.384H345.263ZM371.759 247.984V247.344H366.767V247.024H364.207V246.448H353.839V247.024H360.495V247.344H346.863V247.984H361.327V248.944H371.503V247.984H371.759ZM367.599 250.224H360.559V249.264H358.255V248.944H349.487V249.264H354.095V250.224H353.135V250.864H351.087V252.144H350.447V252.464H353.455V253.424H355.247V253.744H352.687V254.704H349.039V255.984H366.703V254.704H366.062V253.744H365.807V253.424H359.535V252.464H363.759V252.144H363.951V250.864H367.599V250.224ZM427.788 237.424H430.988V238.704H430.412V239.984H429.836V240.944H428.492V241.264H429.004V241.584H427.212V242.224H430.284V243.184H428.428V243.504H428.492C428.492 243.717 428.471 243.931 428.428 244.144C428.428 244.357 428.428 244.571 428.428 244.784H428.364C428.321 244.912 428.3 245.104 428.3 245.36V246.064H427.98C427.937 246.149 427.916 246.256 427.916 246.384C427.916 246.512 427.916 246.619 427.916 246.704H428.556L428.364 247.984H427.788C427.745 248.197 427.703 248.411 427.66 248.624C427.66 248.837 427.617 249.051 427.532 249.264H428.236C428.236 249.307 428.215 249.349 428.172 249.392C428.172 249.435 428.172 249.499 428.172 249.584H429.132C429.132 249.627 429.111 249.669 429.068 249.712C429.068 249.755 429.068 249.819 429.068 249.904H427.916C427.873 250.075 427.831 250.245 427.788 250.416C427.745 250.544 427.703 250.693 427.66 250.864H427.468L427.084 251.824H426.38C426.337 251.995 426.273 252.165 426.188 252.336C426.103 252.464 426.017 252.613 425.932 252.784H426.508C426.423 252.997 426.316 253.211 426.188 253.424H425.804C425.761 253.595 425.676 253.765 425.548 253.936C425.463 254.064 425.377 254.213 425.292 254.384H427.276L426.828 255.024H424.46L423.756 255.984H424.46L423.564 256.944H424.268C424.225 256.987 424.161 257.029 424.076 257.072C424.033 257.115 423.991 257.179 423.948 257.264H424.716C424.588 257.349 424.46 257.456 424.332 257.584C424.247 257.712 424.14 257.819 424.012 257.904H422.796C422.668 257.989 422.54 258.096 422.412 258.224C422.284 258.352 422.135 258.459 421.964 258.544H422.412C422.284 258.629 422.135 258.736 421.964 258.864C421.836 258.992 421.687 259.099 421.516 259.184H421.388C421.004 259.397 420.62 259.611 420.236 259.824C419.852 260.037 419.447 260.251 419.02 260.464H418.828C418.7 260.507 418.572 260.549 418.444 260.592C418.316 260.635 418.188 260.699 418.06 260.784C417.761 260.912 417.463 261.04 417.164 261.168C416.908 261.253 416.609 261.339 416.268 261.424H416.204C414.796 261.851 413.26 262.171 411.596 262.384H411.66C410.977 262.469 410.252 262.533 409.484 262.576C408.759 262.619 408.033 262.64 407.308 262.64C406.54 262.64 405.793 262.619 405.068 262.576C404.343 262.533 403.617 262.469 402.892 262.384C401.271 262.213 399.713 261.893 398.22 261.424H398.284C397.985 261.339 397.687 261.253 397.388 261.168C397.089 261.04 396.791 260.912 396.492 260.784H396.428C396.3 260.699 396.172 260.635 396.044 260.592C395.916 260.549 395.788 260.507 395.66 260.464H395.852C395.425 260.251 395.02 260.037 394.636 259.824C394.252 259.611 393.868 259.397 393.484 259.184H393.612L392.652 258.544H392.268C392.097 258.459 391.948 258.352 391.82 258.224C391.692 258.096 391.564 257.989 391.436 257.904H392.652L391.884 257.264H391.116C391.073 257.179 391.031 257.115 390.988 257.072C390.945 257.029 390.881 256.987 390.796 256.944H390.156C389.985 256.773 389.815 256.624 389.644 256.496C389.516 256.325 389.388 256.155 389.26 255.984H388.556L387.788 255.024H390.156L389.772 254.384H387.724C387.639 254.213 387.553 254.064 387.468 253.936C387.383 253.765 387.297 253.595 387.212 253.424H387.596C387.468 253.211 387.361 252.997 387.276 252.784H386.7C386.615 252.613 386.529 252.464 386.444 252.336C386.401 252.165 386.337 251.995 386.252 251.824H387.02L386.636 250.864H386.828C386.785 250.693 386.743 250.544 386.7 250.416C386.657 250.245 386.615 250.075 386.572 249.904H387.276C387.233 249.819 387.212 249.712 387.212 249.584H386.572C386.572 249.499 386.551 249.435 386.508 249.392C386.508 249.349 386.508 249.307 386.508 249.264H386.38C386.337 249.051 386.295 248.837 386.252 248.624C386.209 248.411 386.167 248.197 386.124 247.984H386.444C386.401 247.771 386.359 247.557 386.316 247.344C386.316 247.131 386.316 246.917 386.316 246.704H385.932L385.868 246.064H386.316V245.36C386.316 245.275 386.295 245.189 386.252 245.104C386.252 244.976 386.252 244.869 386.252 244.784H385.42C385.377 244.571 385.356 244.357 385.356 244.144C385.356 243.931 385.356 243.717 385.356 243.504H385.804V243.184H385.612V242.224H386.892V241.584H384.652V241.264H385.868V240.944H385.804V239.984H385.484V238.704H385.868V237.424H385.42V236.464H383.052V235.184H385.804C385.847 235.099 385.868 234.992 385.868 234.864H386.892V234.544H386.124V233.904H386.188L386.316 232.624H386.188C386.188 232.453 386.188 232.304 386.188 232.176C386.231 232.005 386.273 231.835 386.316 231.664H386.124C386.124 231.493 386.124 231.344 386.124 231.216C386.167 231.045 386.209 230.875 386.252 230.704H386.124C386.167 230.533 386.209 230.384 386.252 230.256C386.295 230.085 386.337 229.915 386.38 229.744H384.588C384.588 229.659 384.588 229.595 384.588 229.552C384.631 229.509 384.652 229.467 384.652 229.424H386.572L386.764 228.784H386.636L386.764 228.464H387.724C387.767 228.379 387.809 228.272 387.852 228.144C387.895 228.016 387.937 227.909 387.98 227.824H387.34C387.468 227.44 387.639 227.013 387.852 226.544H387.66C387.788 226.331 387.895 226.117 387.98 225.904C388.108 225.648 388.236 225.435 388.364 225.264H388.556L388.748 224.944H387.724L387.916 224.624H388.94L389.132 224.304H389.004L389.772 223.344H389.324L390.156 222.384C390.369 222.171 390.583 221.957 390.796 221.744C391.052 221.488 391.308 221.275 391.564 221.104H390.924L391.308 220.784H390.604C390.689 220.699 390.753 220.635 390.796 220.592C390.881 220.549 390.967 220.507 391.052 220.464H392.652C392.823 220.379 392.993 220.272 393.164 220.144C393.335 220.016 393.505 219.909 393.676 219.824H393.868C394.295 219.611 394.721 219.397 395.148 219.184C395.575 218.928 396.001 218.715 396.428 218.544H396.62C397.473 218.16 398.412 217.84 399.436 217.584H399.756C400.993 217.243 402.295 216.987 403.66 216.816C405.025 216.645 406.433 216.56 407.884 216.56C410.913 216.56 413.601 216.901 415.948 217.584H415.564C416.033 217.712 416.503 217.861 416.972 218.032C417.441 218.16 417.889 218.331 418.316 218.544H418.06C418.529 218.715 418.956 218.928 419.34 219.184C419.767 219.397 420.193 219.611 420.62 219.824H420.364L421.324 220.464H419.724C419.809 220.507 419.873 220.549 419.916 220.592C420.001 220.635 420.087 220.699 420.172 220.784H420.876C420.961 220.827 421.047 220.869 421.132 220.912C421.217 220.955 421.281 221.019 421.324 221.104H421.964C422.22 221.275 422.455 221.488 422.668 221.744C422.924 221.957 423.159 222.171 423.372 222.384H423.436C423.607 222.555 423.756 222.725 423.884 222.896C424.012 223.024 424.14 223.173 424.268 223.344H424.716L425.484 224.304H425.612C425.74 224.432 425.825 224.539 425.868 224.624H424.844L425.036 224.944H426.124L426.316 225.264H426.124C426.252 225.435 426.359 225.648 426.444 225.904C426.572 226.117 426.7 226.331 426.828 226.544H427.02L427.596 227.824H428.236L428.428 228.464H427.468L427.596 228.784H427.724L427.916 229.424H427.724C427.724 229.467 427.724 229.509 427.724 229.552C427.767 229.595 427.788 229.659 427.788 229.744H425.1C425.185 229.915 425.228 230.085 425.228 230.256C425.271 230.384 425.313 230.533 425.356 230.704H428.684C428.727 230.875 428.748 231.045 428.748 231.216C428.791 231.344 428.812 231.493 428.812 231.664H427.916C427.959 231.835 427.98 232.005 427.98 232.176C428.023 232.304 428.044 232.453 428.044 232.624H428.876L429.004 233.904H428.172V234.096C428.172 234.139 428.172 234.203 428.172 234.288C428.215 234.373 428.236 234.459 428.236 234.544H429.964V234.864H428.428C428.471 234.949 428.492 235.056 428.492 235.184H429.644C429.687 235.397 429.708 235.611 429.708 235.824C429.708 236.037 429.708 236.251 429.708 236.464H427.788V237.424ZM413.772 238.704H414.348V237.424H411.148V236.464H413.068C413.068 236.251 413.068 236.037 413.068 235.824C413.068 235.611 413.047 235.397 413.004 235.184H411.852C411.852 235.099 411.831 235.035 411.788 234.992C411.788 234.949 411.788 234.907 411.788 234.864H413.324V234.544H411.596C411.596 234.459 411.575 234.395 411.532 234.352C411.532 234.309 411.532 234.267 411.532 234.224V233.904H412.3C412.3 233.691 412.279 233.477 412.236 233.264C412.236 233.008 412.215 232.795 412.172 232.624H411.34C411.297 232.453 411.255 232.304 411.212 232.176C411.169 232.005 411.105 231.835 411.02 231.664H411.916C411.788 231.323 411.617 231.003 411.404 230.704H408.076C407.863 230.363 407.521 230.043 407.052 229.744H409.74C409.484 229.573 409.292 229.467 409.164 229.424H409.356C408.716 229.168 408.012 229.04 407.244 229.04C406.476 229.04 405.772 229.168 405.132 229.424H403.276C403.105 229.467 402.892 229.573 402.636 229.744H404.428C404.087 229.957 403.745 230.277 403.404 230.704H403.532C403.319 231.003 403.148 231.323 403.02 231.664H403.212C403.169 231.835 403.127 232.005 403.084 232.176C403.041 232.304 402.977 232.453 402.892 232.624H403.02C402.977 232.795 402.935 233.008 402.892 233.264C402.892 233.477 402.892 233.691 402.892 233.904H402.764V234.544H403.532V234.864H402.508V235.184H399.692V236.464H402.06V237.424H402.508V238.704H402.124V239.984H402.444V240.944H402.508C402.508 241.072 402.529 241.179 402.572 241.264H401.292V241.584H403.532V242.224H402.252V243.184H402.444V243.504H401.996C401.996 243.717 401.996 243.931 401.996 244.144C402.039 244.357 402.06 244.571 402.06 244.784H402.956V244.976C402.956 245.147 402.956 245.339 402.956 245.552C402.956 245.723 402.977 245.893 403.02 246.064H402.572C402.615 246.149 402.636 246.256 402.636 246.384C402.636 246.512 402.657 246.619 402.7 246.704H403.084C403.127 246.917 403.191 247.131 403.276 247.344C403.361 247.557 403.447 247.771 403.532 247.984H403.212C403.468 248.453 403.809 248.88 404.236 249.264H404.364C404.449 249.307 404.535 249.371 404.62 249.456C404.705 249.499 404.791 249.541 404.876 249.584H405.452C405.58 249.627 405.708 249.691 405.836 249.776C405.964 249.819 406.092 249.861 406.22 249.904H405.452C405.964 250.075 406.561 250.16 407.244 250.16C407.927 250.16 408.524 250.075 409.036 249.904H410.124C410.252 249.861 410.38 249.819 410.508 249.776C410.636 249.691 410.764 249.627 410.892 249.584H409.868C409.953 249.541 410.039 249.499 410.124 249.456C410.209 249.371 410.295 249.307 410.38 249.264H409.676C410.06 248.965 410.401 248.539 410.7 247.984H411.276C411.489 247.515 411.66 247.088 411.788 246.704H411.148C411.191 246.619 411.212 246.512 411.212 246.384C411.212 246.256 411.233 246.149 411.276 246.064H411.596C411.639 245.893 411.66 245.723 411.66 245.552C411.66 245.339 411.66 245.147 411.66 244.976V244.784H411.788C411.788 244.571 411.788 244.357 411.788 244.144C411.788 243.931 411.809 243.717 411.852 243.504H411.788V243.184H413.644V242.224H410.572V241.584H412.364V241.264H411.852V240.944H413.196V239.984H413.772V238.704ZM433.24 218.864C433.283 218.736 433.304 218.629 433.304 218.544C433.347 218.416 433.389 218.309 433.432 218.224H426.392C426.477 218.096 426.563 217.989 426.648 217.904C426.733 217.776 426.819 217.669 426.904 217.584H434.328C434.669 217.328 435.032 217.2 435.416 217.2H448.216C448.685 217.2 449.048 217.328 449.304 217.584H441.88C441.965 217.669 442.051 217.776 442.136 217.904C442.264 217.989 442.349 218.096 442.392 218.224H449.368C449.453 218.48 449.496 218.693 449.496 218.864H453.08C453.123 218.864 453.144 218.885 453.144 218.928V219.504H444.504V220.784H448.088V221.744H447.704V223.024H445.4V224.304H450.584V224.624H450.968V225.904H451.224V227.184H450.776V228.464H450.456V230.064H451.544V231.344H450.328V232.624H450.584V232.944H455.128V234.224H457.496V234.864H447.64V235.504H450.904V236.784H448.216V238.064H450.52V238.704H450.968V239.664H459.544V240.304H465.496V241.584H449.24V240.304H443.288V239.664H434.712V238.704H434.264V238.064H431.96V236.784H434.648V235.504H431.384V234.864H441.24V234.224H438.872V232.944H434.328V232.624H434.072V231.344H435.288V230.064H434.2V228.464H434.52V227.184H434.968V225.904H434.712V224.624H434.328V224.304H429.144V223.024H431.448V221.744H431.832V220.784H428.248V219.504H436.888V218.864H433.24ZM475.8 253.424H458.328V253.744H459.608V254.704H468.696V255.024H465.88V256.304H470.36V257.264H471V257.584H470.552V257.904H470.36V259.184H470.488V260.144H470.232V260.464H469.912C469.869 260.549 469.848 260.656 469.848 260.784H470.552C470.424 261.211 470.189 261.531 469.848 261.744H469.144C468.931 261.915 468.632 262 468.248 262H435.992C435.608 262 435.309 261.915 435.096 261.744H435.736C435.352 261.531 435.096 261.211 434.968 260.784H434.264C434.264 260.699 434.243 260.635 434.2 260.592C434.2 260.549 434.2 260.507 434.2 260.464H434.52V260.144H434.776V259.184H434.648V257.904H434.84V257.584H435.288V257.264H434.648V256.304H430.168V255.024H432.984V254.704H423.896V253.744H422.616V253.424H440.088V252.464H432.984V251.504H439.896V251.184H424.792V250.224H426.968V249.904H435.288V249.584H432.344V248.624H437.336V247.344H432.28V246.704H436.44V246.384H434.52V245.424H436.376V244.784H434.008V244.144H439.576V243.184H441.176V242.544H432.408V241.584H448.664V242.544H457.432V243.184H455.832V244.144H450.264V244.784H452.632V245.424H450.776V246.384H452.696V246.704H448.536V247.344H453.592V248.624H448.6V248.88H466.328C466.925 248.88 467.395 249.115 467.736 249.584H470.68L470.872 249.904H462.552L462.68 250.224H460.44C460.483 250.309 460.504 250.437 460.504 250.608V251.184H475.608V251.504H468.696V252.464H475.8V253.424ZM523.351 227.184C523.436 227.355 523.521 227.525 523.607 227.696C523.692 227.824 523.756 227.973 523.799 228.144H521.431C521.516 228.315 521.601 228.528 521.687 228.784C521.772 228.997 521.857 229.211 521.943 229.424H511.895L512.279 230.704H517.463L517.655 231.664H516.951C516.993 231.749 517.015 231.856 517.015 231.984C517.015 232.112 517.036 232.219 517.079 232.304H515.351L515.415 232.944H516.759C516.759 233.115 516.759 233.285 516.759 233.456C516.801 233.584 516.823 233.733 516.823 233.904H519.191C519.233 234.075 519.255 234.224 519.255 234.352C519.255 234.48 519.255 234.629 519.255 234.8V234.864H513.239C513.239 235.077 513.239 235.291 513.239 235.504C513.281 235.717 513.303 235.931 513.303 236.144H514.647C514.647 236.357 514.647 236.571 514.647 236.784C514.689 236.997 514.711 237.211 514.711 237.424H517.015V237.744H516.119V239.024H516.375V239.984H520.151V241.264H516.567V241.904H516.183C516.183 241.989 516.183 242.096 516.183 242.224C516.183 242.352 516.161 242.459 516.119 242.544H514.967V243.824H515.095C515.052 243.952 515.031 244.123 515.031 244.336V244.464H517.399C517.399 244.635 517.377 244.805 517.335 244.976C517.335 245.104 517.335 245.253 517.335 245.424H518.295C518.295 245.637 518.273 245.851 518.231 246.064C518.231 246.277 518.209 246.491 518.167 246.704H516.759C516.716 246.789 516.695 246.896 516.695 247.024C516.695 247.152 516.673 247.259 516.631 247.344H508.951C508.951 247.515 508.908 247.728 508.823 247.984H515.543C515.457 248.24 515.415 248.453 515.415 248.624H516.375C516.332 248.795 516.289 248.965 516.247 249.136C516.247 249.264 516.204 249.413 516.119 249.584L515.927 250.224H514.071L513.943 250.544H516.951C516.865 250.715 516.823 250.821 516.823 250.864H514.903L514.775 251.184H514.711C514.625 251.397 514.54 251.611 514.455 251.824C514.369 252.037 514.263 252.251 514.135 252.464H513.175L512.471 253.744H513.559L513.175 254.384H513.239C513.153 254.469 513.068 254.576 512.983 254.704C512.897 254.832 512.812 254.939 512.727 255.024H512.279C512.151 255.152 512.065 255.259 512.023 255.344C511.895 255.515 511.767 255.685 511.639 255.856C511.511 255.984 511.361 256.133 511.191 256.304H510.999C510.785 256.517 510.551 256.731 510.295 256.944C510.081 257.157 509.847 257.371 509.591 257.584H510.167L508.823 258.544H508.887C508.545 258.757 508.183 258.971 507.799 259.184C507.414 259.397 507.009 259.611 506.583 259.824H506.519C506.092 260.037 505.559 260.251 504.919 260.464H504.983C504.129 260.763 503.233 261.019 502.295 261.232C501.356 261.445 500.396 261.616 499.415 261.744H500.759C500.076 261.829 499.372 261.893 498.647 261.936C497.921 261.979 497.175 262 496.407 262H477.655C477.271 262 476.972 261.915 476.759 261.744H475.415C474.988 261.488 474.732 261.061 474.647 260.464H474.583V259.824H474.711V258.544H474.583V257.584H474.071V256.304H474.263V255.344H474.199V255.024H474.711V254.384H474.647V253.744H473.495V252.464H474.519V251.184H474.583V250.864H476.503V250.544H473.559V250.224H475.415V248.624H474.519V247.984H474.455V247.344H476.119V246.704H468.758V245.424H468.502V244.464H469.334V243.824H471.959V242.544H473.623V241.904H474.583V241.264H475.607V239.984H477.079V239.024H478.487V237.744H474.199V237.424H472.791V236.144H469.974V234.864H477.271V233.904H471.639V232.944H474.711V232.304H474.583V231.664H474.071V230.704H471.319V229.424H481.303V228.144H483.671V227.184H472.151V225.904H479.703V225.584H473.751V225.264H485.847V223.984H484.311V223.664H469.078V222.384H470.934V221.424H474.903V221.104H477.015V220.464H475.863V220.144H474.519V219.504H474.647V218.928C474.647 218.843 474.647 218.779 474.647 218.736C474.689 218.651 474.711 218.587 474.711 218.544H474.967C475.18 217.648 475.756 217.2 476.695 217.2H495.127C498.412 217.2 501.399 217.648 504.087 218.544H503.831C504.599 218.8 505.388 219.12 506.199 219.504H506.071C506.284 219.589 506.497 219.696 506.711 219.824C506.967 219.909 507.18 220.016 507.351 220.144H508.694L509.271 220.464H510.359C510.572 220.549 510.743 220.656 510.871 220.784C511.041 220.912 511.212 221.019 511.383 221.104H509.271C509.356 221.147 509.441 221.189 509.527 221.232C509.612 221.275 509.676 221.339 509.719 221.424H505.751L506.967 222.384H505.047C505.516 222.768 505.943 223.195 506.326 223.664H521.559C521.601 223.707 521.644 223.749 521.687 223.792C521.729 223.835 521.772 223.899 521.815 223.984H523.415C523.585 224.155 523.756 224.368 523.927 224.624C524.097 224.837 524.247 225.051 524.375 225.264H512.279C512.321 225.307 512.364 225.349 512.407 225.392C512.449 225.435 512.492 225.499 512.535 225.584H518.487L518.679 225.904H511.127C511.425 226.331 511.66 226.757 511.831 227.184H523.351ZM500.759 231.664C500.503 231.28 500.183 230.96 499.799 230.704H494.615C493.676 230.021 492.524 229.68 491.159 229.68H487.319V230.704H490.071V231.664H490.583V232.304H490.711V232.944H487.639V233.904H493.271V234.864H485.975V236.144H488.791V237.424H490.199V237.744H494.487V239.024H493.079V239.984H491.607V241.264H490.583V241.904H489.623V242.544H487.958V243.824H485.335V244.464H484.503V245.424H484.759V246.704H492.119V247.344H490.455V247.984H490.519V248.624H491.415V249.52H495.575C496.812 249.52 497.857 249.221 498.711 248.624H497.687C497.815 248.539 497.943 248.453 498.071 248.368C498.199 248.24 498.305 248.112 498.391 247.984H491.735C491.82 247.899 491.905 247.813 491.991 247.728C492.076 247.6 492.14 247.472 492.183 247.344H499.863C499.948 247.259 500.012 247.173 500.055 247.088C500.097 246.96 500.14 246.832 500.183 246.704H501.655C501.74 246.491 501.804 246.277 501.847 246.064C501.889 245.851 501.932 245.637 501.975 245.424H501.015C501.057 245.253 501.079 245.104 501.079 244.976C501.079 244.805 501.1 244.635 501.143 244.464H498.775V244.336C498.775 244.251 498.775 244.165 498.775 244.08C498.817 243.995 498.839 243.909 498.839 243.824H498.711C498.711 243.611 498.711 243.397 498.711 243.184C498.711 242.928 498.732 242.715 498.775 242.544H499.927V241.904H500.311L500.375 241.264H503.958V239.984H500.183V239.024H499.927V237.744H500.823V237.424H498.455V236.144H497.047C497.047 235.931 497.047 235.717 497.047 235.504C497.047 235.291 497.025 235.077 496.983 234.864H502.999V234.8C502.999 234.629 502.977 234.48 502.935 234.352C502.935 234.181 502.935 234.032 502.935 233.904H500.567C500.524 233.733 500.481 233.584 500.439 233.456C500.396 233.285 500.353 233.115 500.311 232.944H498.967C498.924 232.816 498.881 232.709 498.839 232.624C498.796 232.496 498.753 232.389 498.711 232.304H500.439C500.396 232.176 500.332 232.069 500.247 231.984C500.204 231.856 500.14 231.749 500.055 231.664H500.759ZM562.406 250.864H567.462V251.824H557.734V253.104H564.006V254.384H558.502V255.664H559.206V256.624H558.758V257.264H557.414V257.904H557.35V258.544H558.694V259.824H560.55V260.272C560.55 260.357 560.528 260.421 560.486 260.464H549.094C549.051 260.549 549.03 260.656 549.03 260.784H553.446C553.318 261.211 553.083 261.531 552.742 261.744H551.526C551.312 261.915 551.014 262 550.63 262H517.285C516.944 262 516.624 261.915 516.326 261.744H517.541C517.243 261.531 517.008 261.211 516.837 260.784H512.357C512.315 260.699 512.293 260.592 512.293 260.464H523.75V259.824H521.894V258.544H520.549V257.904H520.614V257.264H521.958V256.624H522.406V255.664H521.702V254.384H527.206V253.104H520.934V251.824H530.662V250.864H525.606V250.224H527.078V249.584H527.718V248.944H520.614V248.304H518.95V247.344H524.902V247.024H520.166V246.384H521.574V245.744H522.598V244.784H522.47V243.504H521.83V242.224H520.87V241.584H521.638V240.304H520.934V239.664H521.958V238.704H522.214V237.744H523.366V237.424H522.278V236.144H521.318V235.184H521.574V234.224H521.702V232.944H522.661V231.664H521.254V230.384H521.446V229.104H523.238V228.144H522.278V227.184H521.766V226.864H524.454V225.904H529.19V225.264H527.27V224.624H521.062V224.304H521.766V223.344H521.83V222.384H522.022V221.104H521.958V219.504H521.83V218.928C521.83 218.757 521.851 218.629 521.894 218.544H521.254C521.424 217.648 521.979 217.2 522.918 217.2H555.75C556.731 217.2 557.286 217.648 557.414 218.544H558.054C558.096 218.629 558.118 218.757 558.118 218.928V219.504H558.246V221.104H558.31V222.384H558.118V223.344H558.054V224.304H557.35V224.624H563.558V225.264H565.478V225.904H560.742V226.864H558.054V227.184H558.566V228.144H559.526C559.44 228.571 559.291 228.891 559.078 229.104H557.286C556.987 229.488 556.56 229.68 556.006 229.68H536.806V230.384H536.614V231.664H538.022V232.944H537.062V233.712H554.854C555.323 233.712 555.728 233.883 556.069 234.224H555.942C556.155 234.437 556.304 234.757 556.39 235.184H556.198V236.144H557.158V237.424H558.246V237.744H557.094V238.704H556.838V239.664H555.814V240.304H556.518V241.584H555.75V242.224H556.71V243.504H557.35V243.76C557.35 244.229 557.243 244.571 557.03 244.784H557.158C556.816 245.253 556.347 245.488 555.75 245.488H537.958V245.744H536.934V246.384H535.526V247.024H540.262V247.344H534.31V248.304H535.974V248.944H543.078V249.52H562.79C563.003 249.52 563.174 249.541 563.302 249.584H562.598C563.024 249.712 563.344 249.925 563.558 250.224H562.086C562.256 250.48 562.363 250.693 562.406 250.864ZM605.413 236.464H602.277C602.234 236.635 602.192 236.805 602.149 236.976C602.106 237.104 602.042 237.253 601.957 237.424H603.749L603.557 238.064H602.021C601.893 238.448 601.722 238.875 601.509 239.344H600.549C600.378 239.771 600.144 240.197 599.845 240.624H599.973C599.802 240.837 599.653 241.051 599.525 241.264C599.397 241.477 599.248 241.691 599.077 241.904H605.989L605.157 242.864H599.461C599.29 243.077 599.077 243.291 598.821 243.504C598.565 243.717 598.33 243.931 598.117 244.144H598.949C598.778 244.315 598.565 244.485 598.309 244.656C598.096 244.784 597.882 244.933 597.669 245.104H599.781L599.525 245.296L600.101 246.384H598.565L599.269 247.664H599.461L599.653 247.984H599.589L600.229 249.264H600.869L601.253 249.904H596.325L596.837 250.864H601.317L601.701 251.504H600.293L600.805 252.464H607.141L607.845 253.744H603.621L604.133 254.704H602.149L603.173 256.624H603.621L604.005 257.264H603.813L604.005 257.584H600.997L601.701 258.864L601.829 259.184H599.845L600.165 259.888C600.293 260.059 600.357 260.251 600.357 260.464H601.701V260.592C601.701 261.061 601.509 261.445 601.125 261.744H602.853C602.64 261.915 602.362 262 602.021 262H588.901C588.645 262 588.41 261.979 588.197 261.936C588.026 261.851 587.834 261.787 587.621 261.744H585.893C585.552 261.573 585.253 261.36 584.997 261.104C584.784 260.848 584.613 260.635 584.485 260.464H583.205L583.077 260.272L582.629 259.184H584.677L584.485 258.864H578.405V259.184H575.141V260.464H580.325C580.24 261.061 579.962 261.488 579.493 261.744H579.045C578.746 261.915 578.426 262 578.085 262H565.541C565.157 262 564.858 261.915 564.645 261.744H565.157C564.688 261.488 564.41 261.061 564.325 260.464H559.205C559.205 260.421 559.205 260.4 559.205 260.4C559.162 260.357 559.141 260.315 559.141 260.272V259.184H562.405V258.864H568.805V257.584H561.957V257.264H565.989V256.624H564.645V255.664H566.885V254.704H563.237V253.744H568.165V252.464H565.349V251.504H565.285V251.184H564.901V250.864H563.173V249.904H565.349V249.264H564.773V247.984H564.837V247.664H564.645V246.384H566.181V245.104H564.005V244.144H563.173V242.864H568.805V241.904H561.893V240.624H561.765V239.344H562.725V238.064H564.197V237.424H562.405V236.464H565.541V235.824H570.149V235.184H563.813V234.864H564.133V234.544H564.709V234.224H564.773V233.584H564.645V232.624H564.901V231.344H564.581V230.704H564.901V229.744H564.645V229.424H564.837V228.784H564.773V228.464H564.517V228.144H565.093V227.184H565.605V226.224H562.597V224.944H563.301V223.664H562.917V222.704H564.645V221.744H565.285V220.784H564.133V220.144H564.581V219.824H564.709V218.864H564.837C564.837 218.395 565.029 217.968 565.413 217.584H568.869C569.125 217.328 569.488 217.2 569.957 217.2H588.901C590.736 217.2 592.442 217.328 594.021 217.584H590.629C592.336 217.84 593.957 218.267 595.493 218.864H595.365C596.09 219.12 596.794 219.44 597.477 219.824H597.349L597.925 220.144H597.413C597.626 220.229 597.797 220.336 597.925 220.464C598.096 220.592 598.266 220.699 598.437 220.784H599.589C599.802 220.955 600.016 221.125 600.229 221.296C600.442 221.424 600.634 221.573 600.805 221.744H600.165C600.378 221.915 600.549 222.085 600.677 222.256C600.848 222.384 601.018 222.533 601.189 222.704H599.461C599.632 222.875 599.781 223.045 599.909 223.216C600.037 223.344 600.165 223.493 600.293 223.664H600.613C600.954 224.091 601.253 224.517 601.509 224.944H600.869C600.997 225.115 601.104 225.328 601.189 225.584C601.317 225.797 601.445 226.011 601.573 226.224H604.581L604.965 227.184H604.453C604.496 227.355 604.538 227.525 604.581 227.696C604.666 227.824 604.73 227.973 604.773 228.144H604.133L604.261 228.464H604.517C604.56 228.549 604.581 228.656 604.581 228.784L604.773 229.424H604.965C604.965 229.552 604.986 229.659 605.029 229.744H605.093C605.136 229.915 605.157 230.085 605.157 230.256C605.2 230.384 605.221 230.533 605.221 230.704H604.389C604.389 230.789 604.389 230.896 604.389 231.024C604.389 231.152 604.41 231.259 604.453 231.344H604.837C604.837 231.557 604.837 231.771 604.837 231.984C604.88 232.197 604.901 232.411 604.901 232.624V233.264H605.285V233.584H604.901V234.224H604.261C604.261 234.267 604.24 234.309 604.197 234.352C604.197 234.395 604.197 234.459 604.197 234.544H604.837C604.837 234.587 604.816 234.629 604.773 234.672C604.773 234.715 604.773 234.779 604.773 234.864H607.781C607.738 234.949 607.717 235.056 607.717 235.184H608.549L608.485 235.824H605.541C605.456 236.08 605.413 236.293 605.413 236.464ZM579.813 235.184H586.149V235.824H581.541V235.888H586.213C586.512 235.888 586.746 235.867 586.917 235.824H589.861C590.33 235.696 590.757 235.483 591.141 235.184H590.245L590.565 234.864H587.557C587.685 234.736 587.77 234.629 587.813 234.544H587.173L587.365 234.224H588.005L588.197 233.584H588.517C588.56 233.499 588.581 233.392 588.581 233.264H588.197L588.261 232.624C588.261 232.197 588.197 231.771 588.069 231.344H587.685C587.642 231.259 587.6 231.152 587.557 231.024C587.557 230.896 587.514 230.789 587.429 230.704H588.325C588.154 230.363 587.92 230.043 587.621 229.744H587.493C587.365 229.616 587.216 229.509 587.045 229.424H586.853C586.426 229.211 585.978 229.104 585.509 229.104H580.837V229.424H580.645V229.744H580.901V230.704H580.581V231.344H580.901V232.624H580.645V233.584H580.773V234.224H580.709V234.544H580.133V234.864H579.813V235.184ZM584.869 249.904L584.613 249.264H583.909L583.397 248.048H580.773V249.264H581.349V249.904H584.869ZM579.173 249.904V250.864H580.389L580.005 249.904H579.173ZM584.997 251.184L584.869 250.864H580.901V251.184H581.285V251.504H581.349V252.464H584.165V253.744H579.237V254.704H582.885V255.664H580.645V256.624H581.989V257.264H577.957V257.584H586.981L586.789 257.264H586.981L586.661 256.624H586.149L585.765 255.664L585.317 254.704H587.365L586.917 253.744H591.077L590.501 252.464H584.165L583.781 251.504H585.189L584.997 251.184Z" fill="black"/>
</svg>
